<svg width="181" height="257" viewBox="0 0 181 257" fill="none" xmlns="http://www.w3.org/2000/svg">
<g filter="url(#filter0_d)">
<rect x="36" y="12" width="109" height="185" fill="#EEECEC"/>
</g>
<rect x="16" y="2" width="149" height="204" fill="#9E98DC"/>
<path d="M36 188H90" stroke="#1C2A39" stroke-width="2"/>
<path d="M84 182L91 188L84 194" stroke="#1C2A39" stroke-width="2"/>
<path d="M29.992 17.2H33.88V34H29.992V17.2ZM41.755 20.32V24.76H49.531V27.88H41.755V34H37.867V17.2H50.563V20.32H41.755ZM68.056 28.048V34H64.168V28L57.664 17.2H61.792L66.28 24.664L70.768 17.2H74.584L68.056 28.048ZM83.6202 34.288C81.8762 34.288 80.3002 33.912 78.8922 33.16C77.5002 32.408 76.4042 31.376 75.6042 30.064C74.8202 28.736 74.4282 27.248 74.4282 25.6C74.4282 23.952 74.8202 22.472 75.6042 21.16C76.4042 19.832 77.5002 18.792 78.8922 18.04C80.3002 17.288 81.8762 16.912 83.6202 16.912C85.3642 16.912 86.9322 17.288 88.3242 18.04C89.7162 18.792 90.8122 19.832 91.6122 21.16C92.4122 22.472 92.8122 23.952 92.8122 25.6C92.8122 27.248 92.4122 28.736 91.6122 30.064C90.8122 31.376 89.7162 32.408 88.3242 33.16C86.9322 33.912 85.3642 34.288 83.6202 34.288ZM83.6202 30.976C84.6122 30.976 85.5082 30.752 86.3082 30.304C87.1082 29.84 87.7322 29.2 88.1802 28.384C88.6442 27.568 88.8762 26.64 88.8762 25.6C88.8762 24.56 88.6442 23.632 88.1802 22.816C87.7322 22 87.1082 21.368 86.3082 20.92C85.5082 20.456 84.6122 20.224 83.6202 20.224C82.6282 20.224 81.7322 20.456 80.9322 20.92C80.1322 21.368 79.5002 22 79.0362 22.816C78.5882 23.632 78.3642 24.56 78.3642 25.6C78.3642 26.64 78.5882 27.568 79.0362 28.384C79.5002 29.2 80.1322 29.84 80.9322 30.304C81.7322 30.752 82.6282 30.976 83.6202 30.976ZM103.198 34.288C100.798 34.288 98.9262 33.624 97.5822 32.296C96.2542 30.968 95.5902 29.072 95.5902 26.608V17.2H99.4782V26.464C99.4782 29.472 100.726 30.976 103.222 30.976C104.438 30.976 105.366 30.616 106.006 29.896C106.646 29.16 106.966 28.016 106.966 26.464V17.2H110.806V26.608C110.806 29.072 110.134 30.968 108.79 32.296C107.462 33.624 105.598 34.288 103.198 34.288ZM29.992 46.2H37.624C39.448 46.2 41.056 46.552 42.448 47.256C43.856 47.944 44.944 48.92 45.712 50.184C46.496 51.448 46.888 52.92 46.888 54.6C46.888 56.28 46.496 57.752 45.712 59.016C44.944 60.28 43.856 61.264 42.448 61.968C41.056 62.656 39.448 63 37.624 63H29.992V46.2ZM37.432 59.808C39.112 59.808 40.448 59.344 41.44 58.416C42.448 57.472 42.952 56.2 42.952 54.6C42.952 53 42.448 51.736 41.44 50.808C40.448 49.864 39.112 49.392 37.432 49.392H33.88V59.808H37.432ZM57.9561 63.288C56.2121 63.288 54.6361 62.912 53.2281 62.16C51.8361 61.408 50.7401 60.376 49.9401 59.064C49.1561 57.736 48.7641 56.248 48.7641 54.6C48.7641 52.952 49.1561 51.472 49.9401 50.16C50.7401 48.832 51.8361 47.792 53.2281 47.04C54.6361 46.288 56.2121 45.912 57.9561 45.912C59.7001 45.912 61.2681 46.288 62.6601 47.04C64.0521 47.792 65.1481 48.832 65.9481 50.16C66.7481 51.472 67.1481 52.952 67.1481 54.6C67.1481 56.248 66.7481 57.736 65.9481 59.064C65.1481 60.376 64.0521 61.408 62.6601 62.16C61.2681 62.912 59.7001 63.288 57.9561 63.288ZM57.9561 59.976C58.9481 59.976 59.8441 59.752 60.6441 59.304C61.4441 58.84 62.0681 58.2 62.5161 57.384C62.9801 56.568 63.2121 55.64 63.2121 54.6C63.2121 53.56 62.9801 52.632 62.5161 51.816C62.0681 51 61.4441 50.368 60.6441 49.92C59.8441 49.456 58.9481 49.224 57.9561 49.224C56.9641 49.224 56.0681 49.456 55.2681 49.92C54.4681 50.368 53.8361 51 53.3721 51.816C52.9241 52.632 52.7001 53.56 52.7001 54.6C52.7001 55.64 52.9241 56.568 53.3721 57.384C53.8361 58.2 54.4681 58.84 55.2681 59.304C56.0681 59.752 56.9641 59.976 57.9561 59.976ZM85.4781 46.2V63H82.2861L73.9101 52.8V63H70.0701V46.2H73.2861L81.6381 56.4V46.2H85.4781ZM92.9329 49.368H87.5569V46.2H102.197V49.368H96.8209V63H92.9329V49.368ZM29.992 75.2H33.88V88.832H42.304V92H29.992V75.2ZM44.4764 75.2H48.3644V92H44.4764V75.2ZM58.4714 85.4L56.2154 87.752V92H52.3514V75.2H56.2154V83.048L63.6554 75.2H67.9754L61.0154 82.688L68.3834 92H63.8474L58.4714 85.4ZM83.125 88.88V92H70.117V75.2H82.813V78.32H73.981V81.968H81.781V84.992H73.981V88.88H83.125ZM96.4954 78.368H91.1194V75.2H105.759V78.368H100.383V92H96.4954V78.368ZM123.259 75.2V92H119.371V85.112H111.739V92H107.851V75.2H111.739V81.824H119.371V75.2H123.259ZM140.242 88.88V92H127.234V75.2H139.93V78.32H131.098V81.968H138.898V84.992H131.098V88.88H140.242ZM41.344 112.336H44.896V119.152C43.984 119.84 42.928 120.368 41.728 120.736C40.528 121.104 39.32 121.288 38.104 121.288C36.36 121.288 34.792 120.92 33.4 120.184C32.008 119.432 30.912 118.4 30.112 117.088C29.328 115.76 28.936 114.264 28.936 112.6C28.936 110.936 29.328 109.448 30.112 108.136C30.912 106.808 32.016 105.776 33.424 105.04C34.832 104.288 36.416 103.912 38.176 103.912C39.648 103.912 40.984 104.16 42.184 104.656C43.384 105.152 44.392 105.872 45.208 106.816L42.712 109.12C41.512 107.856 40.064 107.224 38.368 107.224C37.296 107.224 36.344 107.448 35.512 107.896C34.68 108.344 34.032 108.976 33.568 109.792C33.104 110.608 32.872 111.544 32.872 112.6C32.872 113.64 33.104 114.568 33.568 115.384C34.032 116.2 34.672 116.84 35.488 117.304C36.32 117.752 37.264 117.976 38.32 117.976C39.44 117.976 40.448 117.736 41.344 117.256V112.336ZM59.5716 117.4H51.7716L50.2836 121H46.2996L53.7876 104.2H57.6276L65.1396 121H61.0596L59.5716 117.4ZM58.3476 114.448L55.6836 108.016L53.0196 114.448H58.3476ZM82.1706 121L82.1466 110.92L77.2026 119.224H75.4506L70.5306 111.136V121H66.8826V104.2H70.0986L76.3866 114.64L82.5786 104.2H85.7706L85.8186 121H82.1706ZM102.812 117.88V121H89.8045V104.2H102.501V107.32H93.6685V110.968H101.469V113.992H93.6685V117.88H102.812ZM111.426 121.288C110.098 121.288 108.81 121.112 107.562 120.76C106.33 120.392 105.338 119.92 104.586 119.344L105.906 116.416C106.626 116.944 107.482 117.368 108.474 117.688C109.466 118.008 110.458 118.168 111.45 118.168C112.554 118.168 113.37 118.008 113.898 117.688C114.426 117.352 114.69 116.912 114.69 116.368C114.69 115.968 114.53 115.64 114.21 115.384C113.906 115.112 113.506 114.896 113.01 114.736C112.53 114.576 111.874 114.4 111.042 114.208C109.762 113.904 108.714 113.6 107.898 113.296C107.082 112.992 106.378 112.504 105.786 111.832C105.21 111.16 104.922 110.264 104.922 109.144C104.922 108.168 105.186 107.288 105.714 106.504C106.242 105.704 107.034 105.072 108.09 104.608C109.162 104.144 110.466 103.912 112.002 103.912C113.074 103.912 114.122 104.04 115.146 104.296C116.17 104.552 117.066 104.92 117.834 105.4L116.634 108.352C115.082 107.472 113.53 107.032 111.978 107.032C110.89 107.032 110.082 107.208 109.554 107.56C109.042 107.912 108.786 108.376 108.786 108.952C108.786 109.528 109.082 109.96 109.674 110.248C110.282 110.52 111.202 110.792 112.434 111.064C113.714 111.368 114.762 111.672 115.578 111.976C116.394 112.28 117.09 112.76 117.666 113.416C118.258 114.072 118.554 114.96 118.554 116.08C118.554 117.04 118.282 117.92 117.738 118.72C117.21 119.504 116.41 120.128 115.338 120.592C114.266 121.056 112.962 121.288 111.426 121.288ZM45.4 133.2V150H41.512V143.112H33.88V150H29.992V133.2H33.88V139.824H41.512V133.2H45.4ZM62.3828 146.88V150H49.3748V133.2H62.0708V136.32H53.2388V139.968H61.0388V142.992H53.2388V146.88H62.3828ZM76.1804 150L72.9404 145.32H72.7484H69.3644V150H65.4764V133.2H72.7484C74.2364 133.2 75.5244 133.448 76.6124 133.944C77.7164 134.44 78.5644 135.144 79.1564 136.056C79.7484 136.968 80.0444 138.048 80.0444 139.296C80.0444 140.544 79.7404 141.624 79.1324 142.536C78.5404 143.432 77.6924 144.12 76.5884 144.6L80.3564 150H76.1804ZM76.1084 139.296C76.1084 138.352 75.8044 137.632 75.1964 137.136C74.5884 136.624 73.7004 136.368 72.5324 136.368H69.3644V142.224H72.5324C73.7004 142.224 74.5884 141.968 75.1964 141.456C75.8044 140.944 76.1084 140.224 76.1084 139.296ZM96.1328 146.88V150H83.1248V133.2H95.8208V136.32H86.9888V139.968H94.7888V142.992H86.9888V146.88H96.1328ZM41.344 170.336H44.896V177.152C43.984 177.84 42.928 178.368 41.728 178.736C40.528 179.104 39.32 179.288 38.104 179.288C36.36 179.288 34.792 178.92 33.4 178.184C32.008 177.432 30.912 176.4 30.112 175.088C29.328 173.76 28.936 172.264 28.936 170.6C28.936 168.936 29.328 167.448 30.112 166.136C30.912 164.808 32.016 163.776 33.424 163.04C34.832 162.288 36.416 161.912 38.176 161.912C39.648 161.912 40.984 162.16 42.184 162.656C43.384 163.152 44.392 163.872 45.208 164.816L42.712 167.12C41.512 165.856 40.064 165.224 38.368 165.224C37.296 165.224 36.344 165.448 35.512 165.896C34.68 166.344 34.032 166.976 33.568 167.792C33.104 168.608 32.872 169.544 32.872 170.6C32.872 171.64 33.104 172.568 33.568 173.384C34.032 174.2 34.672 174.84 35.488 175.304C36.32 175.752 37.264 175.976 38.32 175.976C39.44 175.976 40.448 175.736 41.344 175.256V170.336ZM56.6436 179.288C54.8996 179.288 53.3236 178.912 51.9156 178.16C50.5236 177.408 49.4276 176.376 48.6276 175.064C47.8436 173.736 47.4516 172.248 47.4516 170.6C47.4516 168.952 47.8436 167.472 48.6276 166.16C49.4276 164.832 50.5236 163.792 51.9156 163.04C53.3236 162.288 54.8996 161.912 56.6436 161.912C58.3876 161.912 59.9556 162.288 61.3476 163.04C62.7396 163.792 63.8356 164.832 64.6356 166.16C65.4356 167.472 65.8356 168.952 65.8356 170.6C65.8356 172.248 65.4356 173.736 64.6356 175.064C63.8356 176.376 62.7396 177.408 61.3476 178.16C59.9556 178.912 58.3876 179.288 56.6436 179.288ZM56.6436 175.976C57.6356 175.976 58.5316 175.752 59.3316 175.304C60.1316 174.84 60.7556 174.2 61.2036 173.384C61.6676 172.568 61.8996 171.64 61.8996 170.6C61.8996 169.56 61.6676 168.632 61.2036 167.816C60.7556 167 60.1316 166.368 59.3316 165.92C58.5316 165.456 57.6356 165.224 56.6436 165.224C55.6516 165.224 54.7556 165.456 53.9556 165.92C53.1556 166.368 52.5236 167 52.0596 167.816C51.6116 168.632 51.3876 169.56 51.3876 170.6C51.3876 171.64 51.6116 172.568 52.0596 173.384C52.5236 174.2 53.1556 174.84 53.9556 175.304C54.7556 175.752 55.6516 175.976 56.6436 175.976ZM86.6185 175.4H78.8185L77.3305 179H73.3465L80.8345 162.2H84.6745L92.1865 179H88.1065L86.6185 175.4ZM85.3945 172.448L82.7305 166.016L80.0665 172.448H85.3945ZM118.407 162.2L112.911 179H108.735L105.039 167.624L101.223 179H97.0714L91.5514 162.2H95.5834L99.3754 174.008L103.335 162.2H106.935L110.775 174.104L114.687 162.2H118.407ZM131.079 175.4H123.279L121.791 179H117.807L125.295 162.2H129.135L136.647 179H132.567L131.079 175.4ZM129.855 172.448L127.191 166.016L124.527 172.448H129.855ZM145.423 173.048V179H141.535V173L135.031 162.2H139.159L143.647 169.664L148.135 162.2H151.951L145.423 173.048Z" fill="#1C2A39"/>
<defs>
<filter id="filter0_d" x="0" y="0" width="181" height="257" filterUnits="userSpaceOnUse" color-interpolation-filters="sRGB">
<feFlood flood-opacity="0" result="BackgroundImageFix"/>
<feColorMatrix in="SourceAlpha" type="matrix" values="0 0 0 0 0 0 0 0 0 0 0 0 0 0 0 0 0 0 127 0"/>
<feOffset dy="24"/>
<feGaussianBlur stdDeviation="18"/>
<feColorMatrix type="matrix" values="0 0 0 0 0.207843 0 0 0 0 0.192157 0 0 0 0 0.329412 0 0 0 0.28 0"/>
<feBlend mode="normal" in2="BackgroundImageFix" result="effect1_dropShadow"/>
<feBlend mode="normal" in="SourceGraphic" in2="effect1_dropShadow" result="shape"/>
</filter>
</defs>
</svg>
