<svg width="144" height="327" viewBox="0 0 144 327" fill="none" xmlns="http://www.w3.org/2000/svg">
<g filter="url(#filter0_d)">
<rect x="36" y="12" width="137" height="255" fill="#EEECEC"/>
</g>
<rect x="15" y="3" width="137" height="273" fill="#27AE60"/>
<path d="M36 250H90" stroke="#1C2A39" stroke-width="2"/>
<path d="M84 244L91 250L84 256" stroke="#1C2A39" stroke-width="2"/>
<path d="M33.472 137.368H28.096V134.2H42.736V137.368H37.36V151H33.472V137.368ZM60.2359 134.2V151H56.3479V144.112H48.7159V151H44.8279V134.2H48.7159V140.824H56.3479V134.2H60.2359ZM77.2188 147.88V151H64.2108V134.2H76.9068V137.32H68.0748V140.968H75.8748V143.992H68.0748V147.88H77.2188ZM41.344 171.336H44.896V178.152C43.984 178.84 42.928 179.368 41.728 179.736C40.528 180.104 39.32 180.288 38.104 180.288C36.36 180.288 34.792 179.92 33.4 179.184C32.008 178.432 30.912 177.4 30.112 176.088C29.328 174.76 28.936 173.264 28.936 171.6C28.936 169.936 29.328 168.448 30.112 167.136C30.912 165.808 32.016 164.776 33.424 164.04C34.832 163.288 36.416 162.912 38.176 162.912C39.648 162.912 40.984 163.16 42.184 163.656C43.384 164.152 44.392 164.872 45.208 165.816L42.712 168.12C41.512 166.856 40.064 166.224 38.368 166.224C37.296 166.224 36.344 166.448 35.512 166.896C34.68 167.344 34.032 167.976 33.568 168.792C33.104 169.608 32.872 170.544 32.872 171.6C32.872 172.64 33.104 173.568 33.568 174.384C34.032 175.2 34.672 175.84 35.488 176.304C36.32 176.752 37.264 176.976 38.32 176.976C39.44 176.976 40.448 176.736 41.344 176.256V171.336ZM59.5716 176.4H51.7716L50.2836 180H46.2996L53.7876 163.2H57.6276L65.1396 180H61.0596L59.5716 176.4ZM58.3476 173.448L55.6836 167.016L53.0196 173.448H58.3476ZM82.1706 180L82.1466 169.92L77.2026 178.224H75.4506L70.5306 170.136V180H66.8826V163.2H70.0986L76.3866 173.64L82.5786 163.2H85.7706L85.8186 180H82.1706ZM102.812 176.88V180H89.8045V163.2H102.501V166.32H93.6685V169.968H101.469V172.992H93.6685V176.88H102.812ZM111.426 180.288C110.098 180.288 108.81 180.112 107.562 179.76C106.33 179.392 105.338 178.92 104.586 178.344L105.906 175.416C106.626 175.944 107.482 176.368 108.474 176.688C109.466 177.008 110.458 177.168 111.45 177.168C112.554 177.168 113.37 177.008 113.898 176.688C114.426 176.352 114.69 175.912 114.69 175.368C114.69 174.968 114.53 174.64 114.21 174.384C113.906 174.112 113.506 173.896 113.01 173.736C112.53 173.576 111.874 173.4 111.042 173.208C109.762 172.904 108.714 172.6 107.898 172.296C107.082 171.992 106.378 171.504 105.786 170.832C105.21 170.16 104.922 169.264 104.922 168.144C104.922 167.168 105.186 166.288 105.714 165.504C106.242 164.704 107.034 164.072 108.09 163.608C109.162 163.144 110.466 162.912 112.002 162.912C113.074 162.912 114.122 163.04 115.146 163.296C116.17 163.552 117.066 163.92 117.834 164.4L116.634 167.352C115.082 166.472 113.53 166.032 111.978 166.032C110.89 166.032 110.082 166.208 109.554 166.56C109.042 166.912 108.786 167.376 108.786 167.952C108.786 168.528 109.082 168.96 109.674 169.248C110.282 169.52 111.202 169.792 112.434 170.064C113.714 170.368 114.762 170.672 115.578 170.976C116.394 171.28 117.09 171.76 117.666 172.416C118.258 173.072 118.554 173.96 118.554 175.08C118.554 176.04 118.282 176.92 117.738 177.72C117.21 178.504 116.41 179.128 115.338 179.592C114.266 180.056 112.962 180.288 111.426 180.288ZM45.28 209L45.256 198.92L40.312 207.224H38.56L33.64 199.136V209H29.992V192.2H33.208L39.496 202.64L45.688 192.2H48.88L48.928 209H45.28ZM63.9779 205.4H56.1779L54.6899 209H50.7059L58.1939 192.2H62.0339L69.5459 209H65.4659L63.9779 205.4ZM62.7539 202.448L60.0899 196.016L57.4259 202.448H62.7539ZM71.2889 192.2H78.9209C80.7449 192.2 82.3529 192.552 83.7449 193.256C85.1529 193.944 86.2409 194.92 87.0089 196.184C87.7929 197.448 88.1849 198.92 88.1849 200.6C88.1849 202.28 87.7929 203.752 87.0089 205.016C86.2409 206.28 85.1529 207.264 83.7449 207.968C82.3529 208.656 80.7449 209 78.9209 209H71.2889V192.2ZM78.7289 205.808C80.4089 205.808 81.7449 205.344 82.7369 204.416C83.7449 203.472 84.2489 202.2 84.2489 200.6C84.2489 199 83.7449 197.736 82.7369 196.808C81.7449 195.864 80.4089 195.392 78.7289 195.392H75.1769V205.808H78.7289ZM104.125 205.88V209H91.117V192.2H103.813V195.32H94.981V198.968H102.781V201.992H94.981V205.88H104.125ZM114.015 192.2H117.903V209H114.015V192.2ZM137.298 192.2V209H134.106L125.73 198.8V209H121.89V192.2H125.106L133.458 202.4V192.2H137.298ZM41.488 234.832V238H28.792V235.48L35.272 229.36C35.96 228.704 36.424 228.144 36.664 227.68C36.904 227.2 37.024 226.728 37.024 226.264C37.024 225.592 36.792 225.08 36.328 224.728C35.88 224.36 35.216 224.176 34.336 224.176C33.6 224.176 32.936 224.32 32.344 224.608C31.752 224.88 31.256 225.296 30.856 225.856L28.024 224.032C28.68 223.056 29.584 222.296 30.736 221.752C31.888 221.192 33.208 220.912 34.696 220.912C35.944 220.912 37.032 221.12 37.96 221.536C38.904 221.936 39.632 222.512 40.144 223.264C40.672 224 40.936 224.872 40.936 225.88C40.936 226.792 40.744 227.648 40.36 228.448C39.976 229.248 39.232 230.16 38.128 231.184L34.264 234.832H41.488ZM50.2454 238.288C48.8534 238.288 47.6134 237.944 46.5254 237.256C45.4374 236.568 44.5814 235.576 43.9574 234.28C43.3494 232.968 43.0454 231.408 43.0454 229.6C43.0454 227.792 43.3494 226.24 43.9574 224.944C44.5814 223.632 45.4374 222.632 46.5254 221.944C47.6134 221.256 48.8534 220.912 50.2454 220.912C51.6374 220.912 52.8774 221.256 53.9654 221.944C55.0534 222.632 55.9014 223.632 56.5094 224.944C57.1334 226.24 57.4454 227.792 57.4454 229.6C57.4454 231.408 57.1334 232.968 56.5094 234.28C55.9014 235.576 55.0534 236.568 53.9654 237.256C52.8774 237.944 51.6374 238.288 50.2454 238.288ZM50.2454 235C51.2694 235 52.0694 234.56 52.6454 233.68C53.2374 232.8 53.5334 231.44 53.5334 229.6C53.5334 227.76 53.2374 226.4 52.6454 225.52C52.0694 224.64 51.2694 224.2 50.2454 224.2C49.2374 224.2 48.4374 224.64 47.8454 225.52C47.2694 226.4 46.9814 227.76 46.9814 229.6C46.9814 231.44 47.2694 232.8 47.8454 233.68C48.4374 234.56 49.2374 235 50.2454 235ZM71.7458 234.832V238H59.0498V235.48L65.5298 229.36C66.2178 228.704 66.6818 228.144 66.9218 227.68C67.1618 227.2 67.2818 226.728 67.2818 226.264C67.2818 225.592 67.0498 225.08 66.5858 224.728C66.1378 224.36 65.4738 224.176 64.5938 224.176C63.8578 224.176 63.1938 224.32 62.6018 224.608C62.0098 224.88 61.5138 225.296 61.1138 225.856L58.2818 224.032C58.9378 223.056 59.8418 222.296 60.9938 221.752C62.1458 221.192 63.4658 220.912 64.9538 220.912C66.2018 220.912 67.2898 221.12 68.2178 221.536C69.1618 221.936 69.8898 222.512 70.4018 223.264C70.9298 224 71.1938 224.872 71.1938 225.88C71.1938 226.792 71.0018 227.648 70.6178 228.448C70.2338 229.248 69.4898 230.16 68.3858 231.184L64.5218 234.832H71.7458ZM79.8301 221.2V238H75.9421V224.32H72.5821V221.2H79.8301Z" fill="#1C2A39"/>
<defs>
<filter id="filter0_d" x="0" y="0" width="209" height="327" filterUnits="userSpaceOnUse" color-interpolation-filters="sRGB">
<feFlood flood-opacity="0" result="BackgroundImageFix"/>
<feColorMatrix in="SourceAlpha" type="matrix" values="0 0 0 0 0 0 0 0 0 0 0 0 0 0 0 0 0 0 127 0"/>
<feOffset dy="24"/>
<feGaussianBlur stdDeviation="18"/>
<feColorMatrix type="matrix" values="0 0 0 0 0.207843 0 0 0 0 0.192157 0 0 0 0 0.329412 0 0 0 0.28 0"/>
<feBlend mode="normal" in2="BackgroundImageFix" result="effect1_dropShadow"/>
<feBlend mode="normal" in="SourceGraphic" in2="effect1_dropShadow" result="shape"/>
</filter>
</defs>
</svg>
